<svg width="52" height="52" viewBox="0 0 52 52" fill="none" xmlns="http://www.w3.org/2000/svg">
<g filter="url(#filter0_dd)">
<path fill-rule="evenodd" clip-rule="evenodd" d="M26 42C37.0457 42 46 33.0457 46 22C46 10.9543 37.0457 2 26 2C14.9543 2 6 10.9543 6 22C6 33.0457 14.9543 42 26 42Z" fill="#27C48C"/>
</g>
<path d="M25.9999 41.672C36.8644 41.672 45.6719 32.8645 45.6719 22C45.6719 11.1355 36.8644 2.328 25.9999 2.328C15.1353 2.328 6.32788 11.1355 6.32788 22C6.32788 32.8645 15.1353 41.672 25.9999 41.672Z" fill="white"/>
<path d="M26 42C23.3008 42 20.6816 41.4704 18.2144 40.4288C17.0288 39.928 15.8864 39.3072 14.8176 38.584C13.7584 37.8688 12.7632 37.0464 11.8576 36.1424C10.952 35.2368 10.1312 34.2416 9.416 33.1824C8.6944 32.1136 8.0736 30.9696 7.5712 29.7856C6.5296 27.3184 6 24.6992 6 22C6 19.3008 6.5296 16.6816 7.5712 14.2144C8.072 13.0288 8.6928 11.8864 9.416 10.8176C10.1312 9.7584 10.9536 8.7632 11.8576 7.8576C12.7632 6.952 13.7584 6.1312 14.8176 5.416C15.8864 4.6944 17.0304 4.0736 18.2144 3.5712C20.6816 2.5296 23.3008 2 26 2C28.6992 2 31.3184 2.5296 33.7856 3.5712C34.9712 4.072 36.1136 4.6928 37.1824 5.416C38.2416 6.1312 39.2368 6.9536 40.1424 7.8576C41.048 8.7632 41.8688 9.7584 42.584 10.8176C43.3056 11.8864 43.9264 13.0304 44.4288 14.2144C45.472 16.68 46 19.2992 46 22C46 24.7008 45.4704 27.3184 44.4288 29.7856C43.928 30.9712 43.3072 32.1136 42.584 33.1824C41.8688 34.2416 41.0464 35.2368 40.1424 36.1424C39.2368 37.048 38.2416 37.8688 37.1824 38.584C36.1136 39.3056 34.9696 39.9264 33.7856 40.4288C31.3184 41.4704 28.6992 42 26 42ZM26 2.656C23.3888 2.656 20.8544 3.168 18.4704 4.176C17.3248 4.6608 16.2192 5.2608 15.184 5.96C14.16 6.6528 13.1968 7.4464 12.3216 8.3216C11.4464 9.1968 10.6512 10.16 9.96 11.184C9.2608 12.2176 8.6608 13.3232 8.176 14.4704C7.168 16.8544 6.656 19.3888 6.656 22C6.656 24.6112 7.168 27.1456 8.176 29.5296C8.6608 30.6752 9.2608 31.7808 9.96 32.816C10.6528 33.84 11.4464 34.8032 12.3216 35.6784C13.1968 36.5536 14.16 37.3488 15.184 38.04C16.2176 38.7392 17.3232 39.3392 18.4704 39.824C20.8544 40.832 23.3888 41.344 26 41.344C28.6112 41.344 31.1456 40.832 33.5296 39.824C34.6752 39.3392 35.7808 38.7392 36.816 38.04C37.84 37.3472 38.8032 36.5536 39.6784 35.6784C40.5536 34.8032 41.3488 33.84 42.04 32.816C42.7392 31.7824 43.3392 30.6768 43.824 29.5296C44.832 27.1456 45.344 24.6112 45.344 22C45.344 19.3888 44.832 16.8544 43.824 14.4704C43.3392 13.3248 42.7392 12.2192 42.04 11.184C41.3472 10.16 40.5536 9.1968 39.6784 8.3216C38.8032 7.4464 37.84 6.6512 36.816 5.96C35.7824 5.2608 34.6768 4.6608 33.5296 4.176C31.1456 3.1664 28.6112 2.656 26 2.656Z" fill="#FFCE45"/>
<path d="M26 6.6032L41.0688 21.672L26 36.7424L10.9312 21.6736L26 6.6032Z" fill="#FFCE45"/>
<path d="M26.0001 26.5904L10.9185 21.672L26.0001 6.6032L41.0817 21.672L26.0001 26.5904Z" fill="#FEBE44"/>
<path d="M16.1633 20.688H23.0481L26.0001 17.4096L29.2785 20.688H36.1633L26.0001 9.7056L16.1633 20.688Z" fill="white"/>
<g opacity="0.42">
<path opacity="0.42" d="M26 36.7408V6.6032L41.0688 21.672L26 36.7408Z" fill="#D9A547"/>
</g>
<defs>
<filter id="filter0_dd" x="0" y="0" width="52" height="52" filterUnits="userSpaceOnUse" color-interpolation-filters="sRGB">
<feFlood flood-opacity="0" result="BackgroundImageFix"/>
<feColorMatrix in="SourceAlpha" type="matrix" values="0 0 0 0 0 0 0 0 0 0 0 0 0 0 0 0 0 0 127 0"/>
<feOffset dy="1"/>
<feGaussianBlur stdDeviation="1.5"/>
<feColorMatrix type="matrix" values="0 0 0 0 0.145098 0 0 0 0 0.160784 0 0 0 0 0.180392 0 0 0 0.08 0"/>
<feBlend mode="normal" in2="BackgroundImageFix" result="effect1_dropShadow"/>
<feColorMatrix in="SourceAlpha" type="matrix" values="0 0 0 0 0 0 0 0 0 0 0 0 0 0 0 0 0 0 127 0"/>
<feOffset dy="4"/>
<feGaussianBlur stdDeviation="3"/>
<feColorMatrix type="matrix" values="0 0 0 0 0.145098 0 0 0 0 0.160784 0 0 0 0 0.180392 0 0 0 0.04 0"/>
<feBlend mode="normal" in2="effect1_dropShadow" result="effect2_dropShadow"/>
<feBlend mode="normal" in="SourceGraphic" in2="effect2_dropShadow" result="shape"/>
</filter>
</defs>
</svg>
