<svg width="52" height="52" viewBox="0 0 52 52" fill="none" xmlns="http://www.w3.org/2000/svg">
<g filter="url(#filter0_dd)">
<path fill-rule="evenodd" clip-rule="evenodd" d="M26 42C37.0457 42 46 33.0457 46 22C46 10.9543 37.0457 2 26 2C14.9543 2 6 10.9543 6 22C6 33.0457 14.9543 42 26 42Z" fill="#53AE94"/>
<path fill-rule="evenodd" clip-rule="evenodd" d="M26 42C37.0457 42 46 33.0457 46 22C46 10.9543 37.0457 2 26 2C14.9543 2 6 10.9543 6 22C6 33.0457 14.9543 42 26 42Z" fill="#FF8F53"/>
</g>
<path d="M27.6345 19.3801V16.852H33.5195V13H17.4943V16.852H23.3801V19.3781C18.5966 19.5939 15 20.5245 15 21.6394C15 22.7542 18.5984 23.6849 23.3801 23.9021V32H27.6358V23.9014C32.4106 23.6849 36 22.7549 36 21.6411C36 20.5273 32.4106 19.5973 27.6358 19.3808L27.6345 19.3801ZM27.6358 23.2155V23.2134C27.5158 23.2209 26.8989 23.2573 25.5253 23.2573C24.4271 23.2573 23.6544 23.2267 23.3821 23.2128V23.2162C19.1561 23.0323 16.0017 22.3093 16.0017 21.4443C16.0017 20.5793 19.1565 19.8573 23.3821 19.6731V22.4959C23.6589 22.5146 24.4506 22.5605 25.5432 22.5605C26.8556 22.5605 27.5154 22.5068 27.6365 22.4959V19.6731C31.8543 19.8577 35.0015 20.5813 35.0015 21.4433C35.0015 22.3052 31.8529 23.0292 27.6365 23.2138" fill="white"/>
<defs>
<filter id="filter0_dd" x="0" y="0" width="52" height="52" filterUnits="userSpaceOnUse" color-interpolation-filters="sRGB">
<feFlood flood-opacity="0" result="BackgroundImageFix"/>
<feColorMatrix in="SourceAlpha" type="matrix" values="0 0 0 0 0 0 0 0 0 0 0 0 0 0 0 0 0 0 127 0"/>
<feOffset dy="1"/>
<feGaussianBlur stdDeviation="1.5"/>
<feColorMatrix type="matrix" values="0 0 0 0 0.145098 0 0 0 0 0.160784 0 0 0 0 0.180392 0 0 0 0.08 0"/>
<feBlend mode="normal" in2="BackgroundImageFix" result="effect1_dropShadow"/>
<feColorMatrix in="SourceAlpha" type="matrix" values="0 0 0 0 0 0 0 0 0 0 0 0 0 0 0 0 0 0 127 0"/>
<feOffset dy="4"/>
<feGaussianBlur stdDeviation="3"/>
<feColorMatrix type="matrix" values="0 0 0 0 0.145098 0 0 0 0 0.160784 0 0 0 0 0.180392 0 0 0 0.04 0"/>
<feBlend mode="normal" in2="effect1_dropShadow" result="effect2_dropShadow"/>
<feBlend mode="normal" in="SourceGraphic" in2="effect2_dropShadow" result="shape"/>
</filter>
</defs>
</svg>
